# xmcd
#
# Track frame offsets: 
#        150
#        135190
#        149550
#        183133
#        199022
#        216031
#        220472
#        223916
#        229884
#        236479
#        242185
#        252733
#        271107
#        275569
#        278695
#        293575
#        301469
#        306821
#        319465
#
# Disc length: 4548 seconds
#
# Revision: 0
# Processed by: cddbd v1.5.2PL0 Copyright (c) Steve Scherf et al.
# Submitted via: ExactAudioCopy v0.95b3
#
DISCID=3211c213
DTITLE=Jimi Hendrix  - Studio Sessions Vol.2 (Voodoo Chile Records  Bo
DTITLE=x-Set) - Disc 2
DYEAR=1900
DGENRE=
TTITLE0=Driving South\\Everything's Gonna Be Alright
TTITLE1=Bleeding Heart
TTITLE2=Trash Man
TTITLE3=Ships Passing In The Night
TTITLE4=Stone Free
TTITLE5=Mannish Boy Sessions(Part 1)
TTITLE6=Mannish Boy Sessions(Part 1)
TTITLE7=Mannish Boy Sessions(Part 1)
TTITLE8=Mannish Boy Sessions(Part 1)
TTITLE9=Mannish Boy Sessions(Part 1)
TTITLE10=Mannish Boy Sessions(Part 1)
TTITLE11=Mannish Boy Sessions(Part 1)
TTITLE12=Mannish Boy Sessions(Part 1)
TTITLE13=Mannish Boy Sessions(Part 1)
TTITLE14=Mannish Boy Sessions(Part 1)
TTITLE15=Mannish Boy Sessions(Part 1)
TTITLE16=Mannish Boy Sessions(Part 1)
TTITLE17=Mannish Boy Sessions(Part 1)
TTITLE18=Mannish Boy Sessions(Part 1)
EXTD=
EXTT0=
EXTT1=
EXTT2=
EXTT3=
EXTT4=
EXTT5=
EXTT6=
EXTT7=
EXTT8=
EXTT9=
EXTT10=
EXTT11=
EXTT12=
EXTT13=
EXTT14=
EXTT15=
EXTT16=
EXTT17=
EXTT18=
PLAYORDER=
